<mxfile host="app.diagrams.net" modified="2021-08-30T02:42:50.443Z" agent="5.0 (Macintosh; Intel Mac OS X 10_15_7) AppleWebKit/537.36 (KHTML, like Gecko) Chrome/92.0.4515.159 Safari/537.36" etag="2zaS1OaQiWA8YfuBjHWM" version="14.9.9" type="github">
  <diagram id="Xt9pAJSO1Uikg5bPBVgw" name="第 1 页">
    <mxGraphModel dx="884" dy="662" grid="0" gridSize="10" guides="1" tooltips="1" connect="1" arrows="1" fold="1" page="1" pageScale="1" pageWidth="827" pageHeight="1169" math="0" shadow="0">
      <root>
        <mxCell id="0" />
        <mxCell id="1" parent="0" />
        <mxCell id="GxWEWxokIGRsljeVCYwf-6" value="&lt;span&gt;开放平台后台服务&lt;/span&gt;" style="shape=umlLifeline;perimeter=lifelinePerimeter;whiteSpace=wrap;html=1;container=1;collapsible=0;recursiveResize=0;outlineConnect=0;" parent="1" vertex="1">
          <mxGeometry x="363.5" y="40" width="96.5" height="720" as="geometry" />
        </mxCell>
        <mxCell id="GxWEWxokIGRsljeVCYwf-26" value="" style="endArrow=classic;html=1;" parent="GxWEWxokIGRsljeVCYwf-6" target="GxWEWxokIGRsljeVCYwf-23" edge="1">
          <mxGeometry width="50" height="50" relative="1" as="geometry">
            <mxPoint x="46.5" y="410" as="sourcePoint" />
            <mxPoint x="96.5" y="360" as="targetPoint" />
          </mxGeometry>
        </mxCell>
        <mxCell id="GxWEWxokIGRsljeVCYwf-27" value="保存发布文档json文件" style="edgeLabel;html=1;align=center;verticalAlign=middle;resizable=0;points=[];" parent="GxWEWxokIGRsljeVCYwf-26" vertex="1" connectable="0">
          <mxGeometry x="-0.1991" y="1" relative="1" as="geometry">
            <mxPoint as="offset" />
          </mxGeometry>
        </mxCell>
        <mxCell id="GxWEWxokIGRsljeVCYwf-33" value="" style="html=1;points=[];perimeter=orthogonalPerimeter;" parent="GxWEWxokIGRsljeVCYwf-6" vertex="1">
          <mxGeometry x="45.5" y="480" width="10" height="80" as="geometry" />
        </mxCell>
        <mxCell id="GxWEWxokIGRsljeVCYwf-34" value="" style="html=1;points=[];perimeter=orthogonalPerimeter;" parent="GxWEWxokIGRsljeVCYwf-6" vertex="1">
          <mxGeometry x="55.5" y="510" width="10" height="40" as="geometry" />
        </mxCell>
        <mxCell id="GxWEWxokIGRsljeVCYwf-35" value="将url、发布文档id保存到项目中，&lt;br&gt;修改项目发布状态为已发布" style="edgeStyle=orthogonalEdgeStyle;html=1;align=left;spacingLeft=2;endArrow=block;rounded=0;entryX=1;entryY=0;dashed=1;" parent="GxWEWxokIGRsljeVCYwf-6" target="GxWEWxokIGRsljeVCYwf-34" edge="1">
          <mxGeometry relative="1" as="geometry">
            <mxPoint x="55.5" y="490" as="sourcePoint" />
            <Array as="points">
              <mxPoint x="85.5" y="490" />
            </Array>
          </mxGeometry>
        </mxCell>
        <mxCell id="s8ijS-wvpvC1sqWF2m0I-1" value="" style="html=1;points=[];perimeter=orthogonalPerimeter;" vertex="1" parent="GxWEWxokIGRsljeVCYwf-6">
          <mxGeometry x="52.5" y="260" width="10" height="40" as="geometry" />
        </mxCell>
        <mxCell id="s8ijS-wvpvC1sqWF2m0I-2" value="根据发布文档id生成发布文档json文件" style="edgeStyle=orthogonalEdgeStyle;html=1;align=left;spacingLeft=2;endArrow=block;rounded=0;entryX=1;entryY=0;" edge="1" target="s8ijS-wvpvC1sqWF2m0I-1" parent="GxWEWxokIGRsljeVCYwf-6">
          <mxGeometry relative="1" as="geometry">
            <mxPoint x="55.5" y="230" as="sourcePoint" />
            <Array as="points">
              <mxPoint x="85.5" y="230" />
            </Array>
          </mxGeometry>
        </mxCell>
        <mxCell id="s8ijS-wvpvC1sqWF2m0I-3" value="" style="html=1;points=[];perimeter=orthogonalPerimeter;" vertex="1" parent="GxWEWxokIGRsljeVCYwf-6">
          <mxGeometry x="42.5" y="120" width="10" height="210" as="geometry" />
        </mxCell>
        <mxCell id="s8ijS-wvpvC1sqWF2m0I-4" value="" style="html=1;points=[];perimeter=orthogonalPerimeter;" vertex="1" parent="GxWEWxokIGRsljeVCYwf-6">
          <mxGeometry x="52.5" y="140" width="10" height="40" as="geometry" />
        </mxCell>
        <mxCell id="s8ijS-wvpvC1sqWF2m0I-5" value="&lt;span style=&quot;text-align: center&quot;&gt;校验数据准确性&lt;/span&gt;" style="edgeStyle=orthogonalEdgeStyle;html=1;align=left;spacingLeft=2;endArrow=block;rounded=0;entryX=1;entryY=0;" edge="1" target="s8ijS-wvpvC1sqWF2m0I-4" parent="GxWEWxokIGRsljeVCYwf-6">
          <mxGeometry relative="1" as="geometry">
            <mxPoint x="52.5" y="130" as="sourcePoint" />
            <Array as="points">
              <mxPoint x="82.5" y="130" />
            </Array>
          </mxGeometry>
        </mxCell>
        <mxCell id="GxWEWxokIGRsljeVCYwf-8" value="&lt;span&gt;前端&lt;/span&gt;" style="shape=umlLifeline;perimeter=lifelinePerimeter;whiteSpace=wrap;html=1;container=1;collapsible=0;recursiveResize=0;outlineConnect=0;" parent="1" vertex="1">
          <mxGeometry x="150" y="40" width="100" height="650" as="geometry" />
        </mxCell>
        <mxCell id="GxWEWxokIGRsljeVCYwf-10" value="2" style="endArrow=classic;html=1;" parent="GxWEWxokIGRsljeVCYwf-8" target="GxWEWxokIGRsljeVCYwf-6" edge="1">
          <mxGeometry width="50" height="50" relative="1" as="geometry">
            <mxPoint x="50" y="90" as="sourcePoint" />
            <mxPoint x="100" y="40" as="targetPoint" />
          </mxGeometry>
        </mxCell>
        <mxCell id="GxWEWxokIGRsljeVCYwf-32" value="点击发布" style="edgeLabel;html=1;align=center;verticalAlign=middle;resizable=0;points=[];" parent="GxWEWxokIGRsljeVCYwf-10" vertex="1" connectable="0">
          <mxGeometry x="0.0367" relative="1" as="geometry">
            <mxPoint as="offset" />
          </mxGeometry>
        </mxCell>
        <mxCell id="GxWEWxokIGRsljeVCYwf-9" value="mysql存储" style="shape=umlLifeline;perimeter=lifelinePerimeter;whiteSpace=wrap;html=1;container=1;collapsible=0;recursiveResize=0;outlineConnect=0;" parent="1" vertex="1">
          <mxGeometry x="630" y="40" width="110" height="550" as="geometry" />
        </mxCell>
        <mxCell id="GxWEWxokIGRsljeVCYwf-23" value="c-store" style="shape=umlLifeline;perimeter=lifelinePerimeter;whiteSpace=wrap;html=1;container=1;collapsible=0;recursiveResize=0;outlineConnect=0;" parent="1" vertex="1">
          <mxGeometry x="778" y="42" width="100" height="560" as="geometry" />
        </mxCell>
        <mxCell id="GxWEWxokIGRsljeVCYwf-28" value="" style="endArrow=classic;html=1;dashed=1;" parent="1" target="GxWEWxokIGRsljeVCYwf-6" edge="1">
          <mxGeometry width="50" height="50" relative="1" as="geometry">
            <mxPoint x="840" y="490" as="sourcePoint" />
            <mxPoint x="500" y="490" as="targetPoint" />
          </mxGeometry>
        </mxCell>
        <mxCell id="GxWEWxokIGRsljeVCYwf-29" value="保存成功，返回文件下载url" style="edgeLabel;html=1;align=center;verticalAlign=middle;resizable=0;points=[];" parent="GxWEWxokIGRsljeVCYwf-28" vertex="1" connectable="0">
          <mxGeometry x="0.4528" y="-3" relative="1" as="geometry">
            <mxPoint x="62" y="-1" as="offset" />
          </mxGeometry>
        </mxCell>
        <mxCell id="GxWEWxokIGRsljeVCYwf-30" value="" style="endArrow=classic;html=1;dashed=1;" parent="1" source="GxWEWxokIGRsljeVCYwf-6" edge="1">
          <mxGeometry width="50" height="50" relative="1" as="geometry">
            <mxPoint x="363.5" y="630" as="sourcePoint" />
            <mxPoint x="203.5" y="630" as="targetPoint" />
          </mxGeometry>
        </mxCell>
        <mxCell id="GxWEWxokIGRsljeVCYwf-31" value="返回文件下载url" style="edgeLabel;html=1;align=center;verticalAlign=middle;resizable=0;points=[];" parent="GxWEWxokIGRsljeVCYwf-30" vertex="1" connectable="0">
          <mxGeometry x="0.4528" y="-3" relative="1" as="geometry">
            <mxPoint x="44" y="-1" as="offset" />
          </mxGeometry>
        </mxCell>
      </root>
    </mxGraphModel>
  </diagram>
</mxfile>
